HIERARCHY
ROOT Hips
{
	OFFSET 0.000000 88.474243 0.000000
	CHANNELS 6 Xposition Yposition Zposition Zrotation Yrotation Xrotation 
	JOINT Hips_Spine
	{
		OFFSET 0.000000 0.000000 0.000000
		CHANNELS 3 Zrotation Yrotation Xrotation
		JOINT Spine
		{
			OFFSET 0.005100 8.711998 -0.691000
			CHANNELS 3 Zrotation Yrotation Xrotation
			JOINT Spine1
			{
				OFFSET -0.009200 8.660301 -1.275000
				CHANNELS 3 Zrotation Yrotation Xrotation
				JOINT Spine2
				{
					OFFSET 0.006300 9.852501 -1.857000
					CHANNELS 3 Zrotation Yrotation Xrotation
					JOINT Spine2_Neck
					{
						OFFSET 0.000000 0.000000 0.000000
						CHANNELS 3 Zrotation Yrotation Xrotation
						JOINT Neck
						{
							OFFSET 0.016300 11.420799 -0.263300
							CHANNELS 3 Zrotation Yrotation Xrotation
							End Site #name: Head
							{
								OFFSET -0.019200 9.262405 2.362500
							}
						}
					}
					JOINT Spine2_LeftShoulder
					{
						OFFSET 0.000000 0.000000 0.000000
						CHANNELS 3 Zrotation Yrotation Xrotation
						JOINT LeftShoulder
						{
							OFFSET 5.616900 6.732201 -0.345700
							CHANNELS 3 Zrotation Yrotation Xrotation
							JOINT LeftArm
							{
								OFFSET 10.664888 -0.183372 -2.440700
								CHANNELS 3 Zrotation Yrotation Xrotation
								JOINT LeftForeArm
								{
									OFFSET 27.459126 0.000000 0.000000
									CHANNELS 3 Zrotation Yrotation Xrotation
									End Site #name: LeftHand
									{
										OFFSET 21.306858 0.000000 0.000000
									}
								}
							}
						}
					}
					JOINT Spine2_RightShoulder
					{
						OFFSET 0.000000 0.000000 0.000000
						CHANNELS 3 Zrotation Yrotation Xrotation
						JOINT RightShoulder
						{
							OFFSET -5.580300 6.737503 -0.344400
							CHANNELS 3 Zrotation Yrotation Xrotation
							JOINT RightArm
							{
								OFFSET -10.679335 -0.188484 -2.383900
								CHANNELS 3 Zrotation Yrotation Xrotation
								JOINT RightForeArm
								{
									OFFSET -27.503529 0.000000 0.000000
									CHANNELS 3 Zrotation Yrotation Xrotation
									End Site #name: RightHand
									{
										OFFSET -21.306808 0.000000 0.000000
									}
								}
							}
						}
					}
				}
			}
		}
	}
	JOINT Hips_LeftUpLeg
	{
		OFFSET 0.000000 0.000000 0.000000
		CHANNELS 3 Zrotation Yrotation Xrotation
		JOINT LeftUpLeg
		{
			OFFSET 6.857700 -6.739601 0.312100
			CHANNELS 3 Zrotation Yrotation Xrotation
			JOINT LeftLeg
			{
				OFFSET -0.367590 -34.731552 -4.572400
				CHANNELS 3 Zrotation Yrotation Xrotation
				End Site #name: LeftFoot
				{
					OFFSET 0.367590 -34.656704 -6.067400
				}
			}
		}
	}
	JOINT Hips_RightUpLeg
	{
		OFFSET 0.000000 0.000000 0.000000
		CHANNELS 3 Zrotation Yrotation Xrotation
		JOINT RightUpLeg
		{
			OFFSET -6.876100 -6.733299 0.301000
			CHANNELS 3 Zrotation Yrotation Xrotation
			JOINT RightLeg
			{
				OFFSET 0.347353 -34.795158 -4.515900
				CHANNELS 3 Zrotation Yrotation Xrotation
				End Site #name: RightFoot
				{
					OFFSET -0.347353 -34.589367 -6.070300
				}
			}
		}
	}
}
MOTION
Frames: 7
Frame Time: 0.041667
0.533601 0.682495 -0.888386 2.027878 -10.656794 -6.703096 -0.000000 0.000000 -0.000000 -3.550794 -0.902654 -3.360421 2.183304 -2.072814 -5.792827 0.000000 0.000000 0.000000 2.645130 -1.530743 -5.716402 3.398580 -4.560634 -3.228788 1.218644 -1.828786 -6.553629 -16.689642 -1.728910 9.517004 -53.482399 11.019481 -3.038501 -0.677628 -20.685878 8.681995 1.643424 -1.975500 -3.164534 3.838518 5.743025 1.473484 66.060304 -0.691017 -8.086997 0.471178 45.333493 -0.701349 -0.000000 -0.000000 -0.000000 -10.185733 24.922319 -0.626666 -2.064410 0.729311 18.134253 0.000000 0.000000 0.000000 -6.646805 7.568395 -20.489154 5.176446 -4.333619 14.678011 
0.278624 0.688767 -0.949309 1.746372 -11.772157 -6.624532 -0.000000 0.000000 -0.000000 -2.602778 -0.962156 -4.047028 2.371007 -2.101333 -5.753094 0.000000 0.000000 0.000000 2.818763 -1.489620 -5.693531 3.372209 -4.579143 -2.886856 1.420284 -1.796465 -6.471468 -16.018901 -1.889588 9.598428 -54.477308 12.030737 -3.877111 -0.728401 -21.618677 8.617165 1.829346 -1.945162 -3.184019 3.970789 5.919002 1.529317 65.788186 -0.922586 -8.082889 0.486987 45.642617 -0.696446 -0.000000 -0.000000 -0.000000 -9.578439 25.085720 -0.070736 -2.205916 0.422554 17.916257 0.000000 0.000000 0.000000 -5.836875 7.972416 -20.959454 5.388652 -4.657344 14.821245 
0.045398 0.690179 -1.009410 1.441228 -13.189173 -6.488205 -0.000000 0.000000 -0.000000 -1.567562 -0.948709 -4.694908 2.573391 -2.120015 -5.673758 0.000000 0.000000 0.000000 2.983781 -1.440481 -5.641973 3.385881 -4.569196 -2.549168 1.630764 -1.755963 -6.354018 -15.360423 -2.084786 9.650647 -55.445456 12.907876 -4.681472 -0.784647 -22.532872 8.580552 2.018009 -1.909293 -3.182986 4.146135 6.080495 1.573392 65.550634 -1.097780 -7.971672 0.503878 45.823964 -0.690008 -0.000000 -0.000000 -0.000000 -8.937933 25.326625 0.555519 -2.355209 0.091380 17.627142 0.000000 0.000000 0.000000 -5.007845 8.441377 -21.415901 5.599254 -4.953183 14.945372 
-0.155211 0.687633 -1.070312 1.200303 -14.826954 -6.364517 -0.000000 0.000000 -0.000000 -0.532725 -0.922565 -5.315535 2.773103 -2.126165 -5.572956 0.000000 0.000000 0.000000 3.154201 -1.388177 -5.577722 3.430242 -4.512981 -2.192398 1.842451 -1.711875 -6.213984 -14.769056 -2.251966 9.679058 -56.382809 13.694821 -5.459204 -0.842502 -23.298650 8.517760 2.203363 -1.865405 -3.171354 4.359593 6.235184 1.607028 65.357808 -1.224451 -7.790381 0.522774 45.993789 -0.686114 -0.000000 -0.000000 -0.000000 -8.261263 25.557312 1.208209 -2.518436 -0.226859 17.349200 0.000000 -0.000000 0.000000 -4.232520 8.972006 -21.821825 5.802121 -5.186698 15.086888 
-0.312986 0.683518 -1.131022 1.050599 -16.857867 -6.270362 -0.000000 -0.000000 -0.000000 0.371217 -0.921006 -5.914817 2.957878 -2.125873 -5.452453 0.000000 0.000000 0.000000 3.293810 -1.332387 -5.492156 3.421761 -4.512301 -1.752321 2.033461 -1.658713 -6.052892 -14.202494 -2.410726 9.677451 -57.317049 14.358655 -6.176650 -0.914321 -24.017570 8.478747 2.373388 -1.819437 -3.147384 4.620147 6.390049 1.640888 65.165015 -1.335253 -7.619506 0.538268 46.247305 -0.683428 -0.000000 -0.000000 -0.000000 -7.608789 25.774125 1.911492 -2.682402 -0.447112 17.011768 0.000000 -0.000000 0.000000 -3.561104 9.514613 -22.207297 5.987424 -5.420507 15.281698 
-0.417245 0.678628 -1.193383 0.998740 -19.260482 -6.202389 -0.000000 -0.000000 -0.000000 1.065632 -0.970163 -6.496349 3.122105 -2.128570 -5.320045 0.000000 0.000000 0.000000 3.403582 -1.278228 -5.387104 3.356999 -4.515626 -1.227053 2.207830 -1.613320 -5.888581 -13.668792 -2.568295 9.646422 -58.127984 14.767558 -6.943901 -0.996585 -24.655133 8.430037 2.526626 -1.780699 -3.114603 4.923895 6.561332 1.678381 64.903879 -1.544379 -7.546489 0.557897 46.665300 -0.680240 -0.000000 -0.000000 -0.000000 -6.999318 25.964199 2.657336 -2.876841 -0.539124 16.584517 0.000000 -0.000000 0.000000 -3.000934 10.045135 -22.639905 6.146850 -5.577975 15.674845 
-0.462544 0.674646 -1.257461 1.075188 -22.126635 -6.184302 -0.000000 -0.000000 0.000000 1.686878 -1.044141 -7.000269 3.262423 -2.140141 -5.172851 0.000000 0.000000 0.000000 3.496174 -1.229425 -5.266928 3.232312 -4.492788 -0.590709 2.360628 -1.579664 -5.722411 -13.194916 -2.726841 9.586929 -58.916010 15.100046 -7.576136 -1.067745 -25.119706 8.383711 2.660305 -1.750215 -3.074974 5.258882 6.749127 1.722088 64.601776 -1.846997 -7.571717 0.583768 47.250531 -0.668154 -0.000000 -0.000000 -0.000000 -6.513295 26.094348 3.331556 -3.125932 -0.567822 16.205322 0.000000 -0.000000 0.000000 -2.565443 10.544140 -23.181941 6.277039 -5.631329 16.381636 
